<?xml version="1.0" standalone="no"?>
<!DOCTYPE svg PUBLIC "-//W3C//DTD SVG 20010904//EN"
 "http://www.w3.org/TR/2001/REC-SVG-20010904/DTD/svg10.dtd">
<svg version="1.0" xmlns="http://www.w3.org/2000/svg"
 width="296.000000pt" height="296.000000pt" viewBox="0 0 296.000000 296.000000"
 preserveAspectRatio="xMidYMid meet">
<metadata>
Created by potrace 1.14, written by Peter Selinger 2001-2017
</metadata>
<g transform="translate(0.000000,296.000000) scale(0.100000,-0.100000)"
fill="#000000" stroke="none">
<path d="M0 1480 l0 -1480 1480 0 1480 0 0 237 0 237 -27 -26 c-16 -14 -138
-118 -272 -232 l-245 -207 -65 3 -66 3 0 645 0 645 67 3 68 3 2 -559 3 -559
267 226 268 226 0 1157 0 1158 -385 0 -385 0 0 -265 0 -265 -65 0 -65 0 0 265
0 265 -105 0 -105 0 0 -265 0 -265 -65 0 -65 0 0 265 0 265 -298 0 -297 0
-198 -219 -197 -220 0 -445 0 -446 -70 0 -70 0 -2 364 -3 364 -193 -214 -193
-214 -96 0 -97 0 36 38 c19 20 216 240 438 487 222 248 414 462 428 478 l26
27 -467 0 -467 0 0 -1480z m2936 1403 c-8 -16 -174 -302 -369 -638 l-354 -610
-83 -3 c-48 -2 -81 1 -78 7 1 5 167 293 368 640 l365 630 83 1 83 0 -15 -27z
m-1676 -1579 c0 -3 -110 -138 -245 -300 -135 -161 -245 -297 -245 -302 0 -5
128 -161 284 -348 l284 -339 -81 -3 c-44 -2 -86 -1 -93 2 -6 2 -118 132 -248
288 -131 156 -240 284 -244 285 -4 1 -115 -128 -247 -287 l-240 -289 -87 -1
c-49 0 -88 2 -88 5 0 3 214 261 475 573 261 312 475 570 475 575 0 4 -205 7
-455 7 l-455 0 0 70 0 70 605 0 c333 0 605 -3 605 -6z m876 -251 c-8 -21 -91
-252 -186 -513 -95 -261 -177 -487 -182 -502 -10 -27 -13 -28 -79 -28 -38 0
-69 2 -69 4 0 6 381 1059 386 1068 3 4 36 8 74 8 l69 0 -13 -37z"/>
</g>
</svg>
