<svg width="16" height="12" viewBox="0 0 16 12" fill="none" xmlns="http://www.w3.org/2000/svg">
<path d="M16 7.45377C16.0012 7.98386 15.8976 8.50897 15.6953 8.99894C15.493 9.48891 15.1959 9.93409 14.8211 10.3089C14.4462 10.6838 14.0011 10.9809 13.5111 11.1832C13.0211 11.3855 12.496 11.489 11.9659 11.4878H9.72475C9.487 11.4878 9.25898 11.3934 9.09086 11.2253C8.92274 11.0572 8.82829 10.8291 8.82829 10.5914C8.82829 10.3536 8.92274 10.1256 9.09086 9.95749C9.25898 9.78937 9.487 9.69492 9.72475 9.69492H11.9659C12.5603 9.69492 13.1303 9.4588 13.5506 9.0385C13.9709 8.61821 14.2071 8.04816 14.2071 7.45377C14.2071 6.85938 13.9709 6.28933 13.5506 5.86903C13.1303 5.44873 12.5603 5.21261 11.9659 5.21261H2.73235L4.88386 7.36412C5.01295 7.50938 5.08167 7.69847 5.07595 7.89272C5.07023 8.08697 4.99051 8.2717 4.85309 8.40911C4.71568 8.54653 4.53095 8.62625 4.33671 8.63197C4.14246 8.63768 3.95336 8.56897 3.8081 8.43988L0.222251 4.85403C0.0799197 4.7112 0 4.51779 0 4.31615C0 4.11451 0.0799197 3.9211 0.222251 3.77827L3.8081 0.192421C3.95336 0.0633278 4.14246 -0.00538791 4.33671 0.000330263C4.53095 0.00604844 4.71568 0.0857684 4.85309 0.223183C4.99051 0.360598 5.07023 0.545323 5.07595 0.739572C5.08167 0.933822 5.01295 1.12292 4.88386 1.26818L2.73235 3.41969H11.9659C12.496 3.4185 13.0211 3.52204 13.5111 3.72436C14.0011 3.92667 14.4462 4.22377 14.8211 4.59861C15.1959 4.97344 15.493 5.41862 15.6953 5.90859C15.8976 6.39857 16.0012 6.92367 16 7.45377V7.45377Z" fill="#4663CB"/>
</svg>
