<svg width="16" height="18" viewBox="0 0 16 18" fill="none" xmlns="http://www.w3.org/2000/svg">
<path d="M15.1321 2.02435L14.964 1.85619C14.4075 1.30046 13.6533 0.988312 12.8669 0.988312C12.0805 0.988312 11.3262 1.30046 10.7698 1.85619L1.28343 11.3327C1.1569 11.4613 1.06796 11.622 1.02624 11.7976L0.0370439 15.7543C-0.0100519 15.9216 -0.0122805 16.0982 0.0305828 16.2666C0.0734461 16.4349 0.159889 16.589 0.281216 16.7134C0.402542 16.8377 0.554474 16.9279 0.721725 16.9749C0.888975 17.0218 1.06565 17.0239 1.23397 16.9809L5.19074 15.9918C5.36626 15.95 5.52704 15.8611 5.65566 15.7346L15.1321 6.2482C15.6879 5.69178 16 4.93753 16 4.15112C16 3.36471 15.6879 2.61045 15.1321 2.05403V2.02435ZM4.44884 14.1123L2.35175 14.6366L2.87603 12.5395L9.38491 6.03058L10.9577 7.6034L4.44884 14.1123ZM13.7374 4.82377L12.3525 6.19875L10.7896 4.63582L12.1645 3.25095C12.2565 3.15824 12.3659 3.08465 12.4865 3.03443C12.607 2.98421 12.7363 2.95835 12.8669 2.95835C12.9975 2.95835 13.1267 2.98421 13.2473 3.03443C13.3678 3.08465 13.4772 3.15824 13.5692 3.25095L13.7374 3.41911C13.8301 3.51107 13.9037 3.62048 13.9539 3.74102C14.0041 3.86156 14.03 3.99086 14.03 4.12144C14.03 4.25203 14.0041 4.38132 13.9539 4.50186C13.9037 4.6224 13.8301 4.73181 13.7374 4.82377Z" fill="#4663CB"/>
</svg>
