<svg xmlns="http://www.w3.org/2000/svg" style="display: none;">
  <symbol id="yes" viewBox="0 0 16 16">
    <path
      d="M15.488 7.92C15.488 12.064 12.128 15.424 8 15.424C3.856 15.424 0.496 12.064 0.496 7.92C0.496 3.792 3.856 0.431999 8 0.431999C12.128 0.431999 15.488 3.792 15.488 7.92ZM8 0.976C4.16 0.976 1.04 4.08 1.04 7.92C1.04 11.76 4.16 14.88 8 14.88C11.84 14.88 14.944 11.76 14.944 7.92C14.944 4.08 11.84 0.976 8 0.976Z"
    />
  </symbol>
  <symbol id="maybe" viewBox="0 0 16 14">
    <path d="M15.52 13.808H0.48L8 0.783999L15.52 13.808ZM1.584 13.168H14.4L8 2.08L1.584 13.168Z"
    />
  </symbol>
  <symbol id="no" viewBox="0 0 14 14">
    <path
      d="M1.76594 13.216L0.901938 12.352L6.14994 7.072L0.901938 1.792L1.76594 0.927999L7.01394 6.208L12.2299 0.927999L13.0939 1.792L7.84594 7.072L13.0939 12.352L12.2299 13.216L7.01394 7.968L1.76594 13.216Z"
    />
  </symbol>
</svg>