<svg width="138" height="24" viewBox="0 0 138 24" fill="none" xmlns="http://www.w3.org/2000/svg">
<g clip-path="url(#clip0_120_1666)">
<path d="M19.7834 0L12.8716 7.67248V23.651H10.3678V10.4931L3.39329 18.2282H0L16.3902 0H19.7817H19.7834Z" fill="#231815"/>
<path d="M31.9713 9.76466H29.625V0.570923H31.9713V9.76466ZM48.2988 1.45862H51.1838L38.1852 23.651H35.3002L48.2988 1.45862ZM37.931 9.76466H35.5847V0.570923H37.931V9.76466Z" fill="#231815"/>
<path d="M82.6364 23.651H79.4024L70.7152 13.2832L62.0279 23.651H58.7939L76.0092 3.13915H59.6494V0.697983H81.2709L72.3313 11.3825L82.6347 23.651H82.6364Z" fill="#231815"/>
<path d="M96.868 4.40627H99.4041L92.3973 23.651H89.8613L96.868 4.40627ZM104.254 20.4492L113.956 12.3329V15.4398L104.254 23.5884H101.845V0.570923H104.254V20.4492Z" fill="#231815"/>
<path d="M130.477 21.6179H128.095V24H130.477V21.6179Z" fill="#231815"/>
<path d="M130.477 19.5562H128.095V11.5329H135.216V2.64878H123.354V7.39866H120.974V0.268463H137.598V13.9132H130.477V19.5562Z" fill="#231815"/>
</g>
<defs>
<clipPath id="clip0_120_1666">
<rect width="137.598" height="24" fill="white"/>
</clipPath>
</defs>
</svg>
