<?xml version="1.0" encoding="UTF-8"?><svg id="_レイヤー_2" xmlns="http://www.w3.org/2000/svg" viewBox="0 0 292.62 51.51"><defs><style>.cls-1{fill:#231815;stroke-width:0px;}</style></defs><g id="_レイヤー_1-2"><path class="cls-1" d="M42.46,0l-14.83,16.47v34.29h-5.38v-28.24l-14.97,16.6H0L35.18,0h7.28Z"/><path class="cls-1" d="M71.3,20.96h-5.03V1.22h5.03v19.73ZM106.34,3.13h6.19l-27.9,47.63h-6.19L106.34,3.13ZM84.09,20.96h-5.04V1.22h5.04v19.73Z"/><path class="cls-1" d="M180.57,50.76h-6.94l-18.64-22.25-18.64,22.25h-6.94L166.35,6.74h-35.11V1.5h46.4l-19.19,22.93,22.11,26.33Z"/><path class="cls-1" d="M210.57,9.46h5.44l-15.04,41.3h-5.44l15.04-41.3ZM226.42,43.89l20.82-17.42v6.67l-20.82,17.49h-5.17V1.22h5.17v42.66Z"/><path class="cls-1" d="M277.72,4.9c-5.99,0-9.53,4.08-10.61,9.53l-4.83-1.5c.95-5.72,5.78-12.59,15.38-12.59,10.34,0,14.97,6.26,14.97,13.13,0,12.66-14.15,11.02-13.13,26.19h-4.9c-.82-17.83,13.13-16.74,13.13-26.19,0-4.49-2.99-8.57-10-8.57ZM277.18,43.95c2.11,0,3.74,1.7,3.74,3.74s-1.63,3.81-3.74,3.81-3.74-1.7-3.74-3.81,1.7-3.74,3.74-3.74Z"/></g></svg>