<?xml version="1.0" encoding="UTF-8"?><svg id="_レイヤー_2" xmlns="http://www.w3.org/2000/svg" viewBox="0 0 413.07 84.79"><defs><style>.cls-1{fill:#231815;stroke-width:0px;}</style></defs><g id="_レイヤー_1-2"><path class="cls-1" d="M70.93,0l-24.78,27.51v57.29h-8.98v-47.17l-25.01,27.73H0L58.76,0h12.16Z"/><path class="cls-1" d="M119.13,35.01h-8.41V2.05h8.41v32.96ZM177.66,5.23h10.34l-46.6,79.56h-10.34L177.66,5.23ZM140.49,35.01h-8.41V2.05h8.41v32.96Z"/><path class="cls-1" d="M301.68,84.79h-11.59l-31.14-37.17-31.14,37.17h-11.59l61.72-73.54h-58.65V2.5h77.52l-32.05,38.3,36.94,43.99Z"/><path class="cls-1" d="M351.81,15.8h9.09l-25.12,68.99h-9.09l25.12-68.99ZM378.29,73.31l34.78-29.1v11.14l-34.78,29.21h-8.64V2.05h8.64v71.27Z"/></g></svg>