<svg width="156" height="14" viewBox="0 0 156 14" fill="none" xmlns="http://www.w3.org/2000/svg">
<path d="M0 1.08069H8.92732V13.189H0V1.08069ZM7.78289 2.20667H1.14443V6.21897H7.78289V2.20667ZM1.14443 12.0669H7.78289V7.3291H1.14443V12.0669Z" fill="#231815"/>
<path d="M23.8167 8.97048H22.57L22.1886 8.4392V13.3674H21.0874V8.5859L19.121 11.3691V9.45814L21.0874 6.65904V5.34275H19.121V4.27624H21.0874V2.30578L19.3845 2.61502V1.47319L23.6555 0.731781V1.85776L22.1886 2.10754V4.26832H24.1274V5.33482H22.1886V6.66697L23.8167 8.96255V8.97048ZM28.1506 12.1383H31.5288V13.1889H23.7302V12.1383H27.077V10.2273H24.4184V9.17664H27.077V7.62247H24.0959V6.57182H31.1591V7.62247H28.1506V9.17664H30.8249V10.2273H28.1506V12.1383ZM30.5574 0.787287V5.5965H24.7134V0.787287H30.5574ZM29.4563 4.54585V1.83794H25.8146V4.54585H29.4563Z" fill="#231815"/>
<path d="M39.9567 3.89562V2.80135H44.4793V3.89562H39.9567ZM44.0664 0.993439V2.0877H40.3657V0.993439H44.0664ZM44.0074 4.62116V5.70353H40.4247V4.62116H44.0074ZM40.4247 7.50748V6.41321H44.0074V7.50748H40.4247ZM40.4247 13.2206V8.26078H44.1411V13.2206H40.4247ZM41.4983 9.26782V12.2136H43.0557V9.26782H41.4983ZM45.1518 0.993439H52.0813V13.3673H51.0234V2.10356H46.1625L45.7063 13.3673H44.6484L45.1479 0.993439H45.1518ZM49.0452 4.84319V5.96917H50.8504V7.00396H46.2412V5.96917H48.0306V4.84319H46.5322V3.80839H48.0306V2.44453H49.0452V3.80839H50.5436V4.84319H49.0452ZM46.6345 12.0074V7.75726H50.4531V12.0074H46.6345ZM47.6648 8.7643V11.0004H49.3834V8.7643H47.6648Z" fill="#231815"/>
<path d="M63.5099 8.14185V6.88503L60.8238 8.55814V7.28547L63.4076 5.68768H61.3075V2.6071H63.5099V2.1789H60.8238V1.21548H63.5099V0.636627H64.4931V1.21548H67.2106V2.1789H64.4931V2.6071H66.6521V5.68768H64.6386L66.428 6.85728V8.04273L64.4891 6.77005V8.14581H63.5059L63.5099 8.14185ZM67.6471 11.2224V12.1541H73.2277V13.2207H60.8199V12.1541H63.1559V10.1995H64.2571V12.1541H66.546V9.47399H61.3901V8.40748H72.6535V9.47399H67.6471V10.2154H71.7883V11.2224H67.6471ZM62.3497 3.47933V4.79562H63.5099V3.47933H62.3497ZM65.6218 3.47933H64.4931V4.79562H65.6218V3.47933ZM67.9735 4.45862H66.7544L68.882 0.64059H70.1011L69.4562 1.79433H73.2316V2.80137H72.2917L70.6321 4.978L73.2473 8.08634H71.7922L69.8848 5.80662L68.1387 8.08634H66.833L69.1534 5.05333L68.2449 3.97096L67.9814 4.45862H67.9735ZM70.8641 2.7974H68.8977L68.6932 3.15422H68.9135L69.7944 4.20488L70.868 2.7974H70.8641Z" fill="#231815"/>
<path d="M92.5688 3.55466V4.8868L88.6046 7.6859L89.5013 9.60879H88.3726L87.7551 8.26078L85.2303 10.0528V11.5039H92.1441V12.5704H84.1567V9.5057L87.2989 7.28546L87.0512 6.75419L84.3651 5.96917L85.2028 3.33263H82.8982V2.29784H85.541L85.836 1.37802H86.9686L86.6736 2.29784H90.976V3.33263H86.3511L85.7062 5.3031L87.8063 5.92556L88.1602 6.67885L92.5806 3.55466H92.5688Z" fill="#231815"/>
<path d="M104.214 2.41282L103.773 3.19784H102.526L103.993 0.636627H105.24L104.772 1.44939H108.752V2.41282H106.931L107.431 3.30092H106.184L105.684 2.41282H104.218H104.214ZM108.205 3.6855V8.09823H104.155V13.3674H103.081V3.6855H108.205ZM107.163 4.69254H104.155V5.43394H107.163V4.69254ZM104.155 7.0912H107.163V6.39737H104.155V7.0912ZM106.239 12.8956V8.73655H111.218V12.8956H106.239ZM110.219 9.69602H107.222V10.3343H110.219V9.69602ZM107.222 11.9321H110.219V11.2938H107.222V11.9321ZM110.805 1.45336H114.93V2.41679H112.476L112.992 3.30488H111.745L111.23 2.41679H110.246L109.806 3.2018H108.559L110.026 0.64059H111.273L110.805 1.45336ZM109.102 8.09823V3.6855H114.36V13.3674H113.286V8.09823H109.102ZM113.286 4.69254H110.144V5.43394H113.286V4.69254ZM110.144 7.0912H113.286V6.39737H110.144V7.0912Z" fill="#231815"/>
<path d="M135.562 9.73963V10.8934H130.142V13.3674H128.998V10.8934H123.594V9.73963H128.998V8.51057H124.888V2.3811H131.759L132.773 0.63266H134.095L133.08 2.3811H134.256V8.51057H130.146V9.73963H135.565H135.562ZM126.898 2.25027H125.576L124.695 0.711953H126.017L126.898 2.25027ZM128.998 3.49519H126.044V4.90267H128.998V3.49519ZM126.048 7.40441H129.002V5.99693H126.048V7.40441ZM129.702 2.25027H128.38L127.499 0.711953H128.821L129.702 2.25027ZM133.096 4.90267V3.49519H130.146V4.90267H133.096ZM130.142 7.40441H133.092V5.99693H130.142V7.40441Z" fill="#231815"/>
<path d="M144.961 12.5704L145.256 3.51104L144.961 1.79431H146.046L146.353 3.52689L146.058 12.5704H144.957H144.961ZM156 12.3008H148.41V11.1907H156V12.3008ZM155.678 2.6943L154.281 6.40925H153.106L153.971 4.08592L148.831 4.95816V3.84804L155.674 2.6943H155.678Z" fill="#231815"/>
</svg>
